<?xml version="1.0" encoding="utf-8"?>
<!-- Generator: Adobe Illustrator 24.0.1, SVG Export Plug-In . SVG Version: 6.00 Build 0)  -->
<svg version="1.1" id="Laag_1" xmlns="http://www.w3.org/2000/svg" xmlns:xlink="http://www.w3.org/1999/xlink" x="0px" y="0px"
	 viewBox="0 0 462.3 221.1" style="enable-background:new 0 0 462.3 221.1;" xml:space="preserve">
<style type="text/css">
	.st0{display:none;}
	.st1{display:inline;fill:#FFFFFF;}
	.st2{display:inline;}
	.st3{fill:#231F20;}
	.st4{fill:#FFFFFF;}
	.st5{display:inline;fill:#231F20;}
</style>
<g id="Bandlogo-fblack" class="st0">
	<rect id="White_BG" x="-77.9" y="-350.5" class="st1" width="601.1" height="861.1"/>
	<g id="Logo" class="st2">
		<path d="M393.3,75.6V24h-21.1l0,55.5c-20.5,5-42.4,14.2-59.8,30.6c-4.5,4.3-8.9,8.2-13.1,11.9V45.1l19,0v0
			c0,11.7,9.5,21.1,21.1,21.1c11.7,0,21.1-9.5,21.1-21.1S351.1,24,339.4,24h-49.2l0,0h-12l0,114.6c-11.4,8-22.2,13.6-33.5,17.4
			L194.6,24.7l-0.3-0.7h-20.8v0.7l0,135.2c-13.4-3.1-25.5-8.9-36.6-17.1V66.2c11.7,0,21.1-9.5,21.1-21.1S148.6,24,136.9,24
			c-0.1,0-0.1,0-0.1,0h-21v20.8v0v0.6l0,77.8C95,99.6,77.4,66.2,59.7,25.3V24H38.6l0,177.8h21.1V65.8c15.8,32.1,30.7,55.1,46.6,72.3
			c3.1,3.4,6.3,6.6,9.6,9.6l0,54.1h21.1v-38.2c11.5,6.9,23.6,11.6,36.6,14.2v24h21.1v-21.7c1.2,0,2.4,0,3.6,0
			c12.1,0,23.1-0.8,33.5-2.8l9.3,24.4h21.1l-11.3-29.5c9.2-3.2,18.2-7.5,27.3-13l0,42.5h21.1v-57.4c7.8-6.1,15.8-13.2,24.4-21.4
			c13.7-12.9,31.3-20.7,48.5-25.3l0,82c0,0.3,0,0.6,0,1c0,11.7,9.5,21.1,21.1,21.1s21.1-9.5,21.1-21.1c0-11.7-9.5-21.1-21.1-21.1
			V93.5c23.9-3.4,43-1.8,43.4-1.7l0.1-17.5C435.2,74.1,416.9,72.5,393.3,75.6z M198.2,162.7c-1.2,0-2.4,0-3.6,0V80l30.8,80.7
			C217,162.1,208,162.7,198.2,162.7z"/>
	</g>
</g>
<g id="Bandlogo-black" class="st0">
	<rect id="White_BG_1_" x="-77.9" y="-350.5" class="st1" width="601.1" height="861.1"/>
	<g id="Logo_15_" class="st2">
		<path class="st3" d="M393.3,75.6V24h-21.1l0,55.5c-20.5,5-42.4,14.2-59.8,30.6c-4.5,4.3-8.9,8.2-13.1,11.9V45.1l19,0v0
			c0,11.7,9.5,21.1,21.1,21.1c11.7,0,21.1-9.5,21.1-21.1S351.1,24,339.4,24h-49.2l0,0h-12l0,114.6c-11.4,8-22.2,13.6-33.5,17.4
			L194.6,24.7l-0.3-0.7h-20.8v0.7l0,135.2c-13.4-3.1-25.5-8.9-36.6-17.1V66.2c11.7,0,21.1-9.5,21.1-21.1S148.6,24,136.9,24
			c-0.1,0-0.1,0-0.1,0h-21v20.8v0v0.6l0,77.8C95,99.6,77.4,66.2,59.7,25.3V24H38.6l0,177.8h21.1V65.8c15.8,32.1,30.7,55.1,46.6,72.3
			c3.1,3.4,6.3,6.6,9.6,9.6l0,54.1h21.1v-38.2c11.5,6.9,23.6,11.6,36.6,14.2v24h21.1v-21.7c1.2,0,2.4,0,3.6,0
			c12.1,0,23.1-0.8,33.5-2.8l9.3,24.4h21.1l-11.3-29.5c9.2-3.2,18.2-7.5,27.3-13l0,42.5h21.1v-57.4c7.8-6.1,15.8-13.2,24.4-21.4
			c13.7-12.9,31.3-20.7,48.5-25.3l0,82c0,0.3,0,0.6,0,1c0,11.7,9.5,21.1,21.1,21.1s21.1-9.5,21.1-21.1c0-11.7-9.5-21.1-21.1-21.1
			V93.5c23.9-3.4,43-1.8,43.4-1.7l0.1-17.5C435.2,74.1,416.9,72.5,393.3,75.6z M198.2,162.7c-1.2,0-2.4,0-3.6,0V80l30.8,80.7
			C217,162.1,208,162.7,198.2,162.7z"/>
	</g>
</g>
<g id="Bandlogo-white-fb_x5F_bg" class="st0">
	<rect id="Full-black_BG" x="-77.9" y="-350.5" class="st2" width="601.1" height="861.1"/>
	<g id="Logo_2_" class="st2">
		<path class="st4" d="M393.3,75.6V24h-21.1l0,55.5c-20.5,5-42.4,14.2-59.8,30.6c-4.5,4.3-8.9,8.2-13.1,11.9V45.1l19,0v0
			c0,11.7,9.5,21.1,21.1,21.1c11.7,0,21.1-9.5,21.1-21.1S351.1,24,339.4,24h-49.2l0,0h-12l0,114.6c-11.4,8-22.2,13.6-33.5,17.4
			L194.6,24.7l-0.3-0.7h-20.8v0.7l0,135.2c-13.4-3.1-25.5-8.9-36.6-17.1V66.2c11.7,0,21.1-9.5,21.1-21.1S148.6,24,136.9,24
			c-0.1,0-0.1,0-0.1,0h-21v20.8v0v0.6l0,77.8C95,99.6,77.4,66.2,59.7,25.3V24H38.6l0,177.8h21.1V65.8c15.8,32.1,30.7,55.1,46.6,72.3
			c3.1,3.4,6.3,6.6,9.6,9.6l0,54.1h21.1v-38.2c11.5,6.9,23.6,11.6,36.6,14.2v24h21.1v-21.7c1.2,0,2.4,0,3.6,0
			c12.1,0,23.1-0.8,33.5-2.8l9.3,24.4h21.1l-11.3-29.5c9.2-3.2,18.2-7.5,27.3-13l0,42.5h21.1v-57.4c7.8-6.1,15.8-13.2,24.4-21.4
			c13.7-12.9,31.3-20.7,48.5-25.3l0,82c0,0.3,0,0.6,0,1c0,11.7,9.5,21.1,21.1,21.1s21.1-9.5,21.1-21.1c0-11.7-9.5-21.1-21.1-21.1
			V93.5c23.9-3.4,43-1.8,43.4-1.7l0.1-17.5C435.2,74.1,416.9,72.5,393.3,75.6z M198.2,162.7c-1.2,0-2.4,0-3.6,0V80l30.8,80.7
			C217,162.1,208,162.7,198.2,162.7z"/>
	</g>
</g>
<g id="Bandlogo-white-b_x5F_bg" class="st0">
	<rect id="black_BG_2_" x="-77.9" y="-350.5" class="st5" width="601.1" height="861.1"/>
	<g id="Logo_10_" class="st2">
		<path class="st4" d="M393.3,75.6V24h-21.1l0,55.5c-20.5,5-42.4,14.2-59.8,30.6c-4.5,4.3-8.9,8.2-13.1,11.9V45.1l19,0v0
			c0,11.7,9.5,21.1,21.1,21.1c11.7,0,21.1-9.5,21.1-21.1S351.1,24,339.4,24h-49.2l0,0h-12l0,114.6c-11.4,8-22.2,13.6-33.5,17.4
			L194.6,24.7l-0.3-0.7h-20.8v0.7l0,135.2c-13.4-3.1-25.5-8.9-36.6-17.1V66.2c11.7,0,21.1-9.5,21.1-21.1S148.6,24,136.9,24
			c-0.1,0-0.1,0-0.1,0h-21v20.8v0v0.6l0,77.8C95,99.6,77.4,66.2,59.7,25.3V24H38.6l0,177.8h21.1V65.8c15.8,32.1,30.7,55.1,46.6,72.3
			c3.1,3.4,6.3,6.6,9.6,9.6l0,54.1h21.1v-38.2c11.5,6.9,23.6,11.6,36.6,14.2v24h21.1v-21.7c1.2,0,2.4,0,3.6,0
			c12.1,0,23.1-0.8,33.5-2.8l9.3,24.4h21.1l-11.3-29.5c9.2-3.2,18.2-7.5,27.3-13l0,42.5h21.1v-57.4c7.8-6.1,15.8-13.2,24.4-21.4
			c13.7-12.9,31.3-20.7,48.5-25.3l0,82c0,0.3,0,0.6,0,1c0,11.7,9.5,21.1,21.1,21.1s21.1-9.5,21.1-21.1c0-11.7-9.5-21.1-21.1-21.1
			V93.5c23.9-3.4,43-1.8,43.4-1.7l0.1-17.5C435.2,74.1,416.9,72.5,393.3,75.6z M198.2,162.7c-1.2,0-2.4,0-3.6,0V80l30.8,80.7
			C217,162.1,208,162.7,198.2,162.7z"/>
	</g>
</g>
<g id="Bandlogo_x5F_no-bg">
	<g id="Logo_7_">
		<path class="st4" d="M393.3,75.6V24h-21.1l0,55.5c-20.5,5-42.4,14.2-59.8,30.6c-4.5,4.3-8.9,8.2-13.1,11.9V45.1l19,0v0
			c0,11.7,9.5,21.1,21.1,21.1c11.7,0,21.1-9.5,21.1-21.1S351.1,24,339.4,24h-49.2l0,0h-12l0,114.6c-11.4,8-22.2,13.6-33.5,17.4
			L194.6,24.7l-0.3-0.7h-20.8v0.7l0,135.2c-13.4-3.1-25.5-8.9-36.6-17.1V66.2c11.7,0,21.1-9.5,21.1-21.1S148.6,24,136.9,24
			c-0.1,0-0.1,0-0.1,0h-21v20.8v0v0.6l0,77.8C95,99.6,77.4,66.2,59.7,25.3V24H38.6l0,177.8h21.1V65.8c15.8,32.1,30.7,55.1,46.6,72.3
			c3.1,3.4,6.3,6.6,9.6,9.6l0,54.1h21.1v-38.2c11.5,6.9,23.6,11.6,36.6,14.2v24h21.1v-21.7c1.2,0,2.4,0,3.6,0
			c12.1,0,23.1-0.8,33.5-2.8l9.3,24.4h21.1l-11.3-29.5c9.2-3.2,18.2-7.5,27.3-13l0,42.5h21.1v-57.4c7.8-6.1,15.8-13.2,24.4-21.4
			c13.7-12.9,31.3-20.7,48.5-25.3l0,82c0,0.3,0,0.6,0,1c0,11.7,9.5,21.1,21.1,21.1s21.1-9.5,21.1-21.1c0-11.7-9.5-21.1-21.1-21.1
			V93.5c23.9-3.4,43-1.8,43.4-1.7l0.1-17.5C435.2,74.1,416.9,72.5,393.3,75.6z M198.2,162.7c-1.2,0-2.4,0-3.6,0V80l30.8,80.7
			C217,162.1,208,162.7,198.2,162.7z"/>
	</g>
</g>
</svg>
