<?xml version="1.0" encoding="utf-8"?>
<!-- Generator: Adobe Illustrator 24.0.1, SVG Export Plug-In . SVG Version: 6.00 Build 0)  -->
<svg version="1.1" id="Laag_1" xmlns="http://www.w3.org/2000/svg" xmlns:xlink="http://www.w3.org/1999/xlink" x="0px" y="0px"
	 viewBox="0 0 462.3 203.2" style="enable-background:new 0 0 462.3 203.2;" xml:space="preserve">
<style type="text/css">
	.st0{display:none;}
	.st1{display:inline;fill:#FFFFFF;}
	.st2{display:inline;}
	.st3{fill:#231F20;}
	.st4{fill:#FFFFFF;}
	.st5{display:inline;fill:#231F20;}
</style>
<g id="Bandlogo-fblack" class="st0">
	<rect id="White_BG" x="-77.9" y="-368.4" class="st1" width="601.1" height="861.1"/>
	<g id="Logo" class="st2">
		<path d="M393.3,57.7V6.1h-21.1v55.5c-20.5,5-42.4,14.2-59.8,30.6c-4.5,4.3-8.9,8.2-13.1,11.9V27.2h19l0,0
			c0,11.7,9.5,21.1,21.1,21.1c11.7,0,21.1-9.5,21.1-21.1s-9.4-21.1-21.1-21.1h-49.2l0,0h-12v114.6c-11.4,8-22.2,13.6-33.5,17.4
			L194.6,6.8l-0.3-0.7h-20.8v0.7V142c-13.4-3.1-25.5-8.9-36.6-17.1V48.3c11.7,0,21.1-9.5,21.1-21.1s-9.4-21.1-21.1-21.1
			c-0.1,0-0.1,0-0.1,0h-21v20.8l0,0v0.6v77.8C95,81.7,77.4,48.3,59.7,7.4V6.1H38.6v177.8h21.1v-136C75.5,80,90.4,103,106.3,120.2
			c3.1,3.4,6.3,6.6,9.6,9.6v54.1H137v-38.2c11.5,6.9,23.6,11.6,36.6,14.2v24h21.1v-21.7c1.2,0,2.4,0,3.6,0c12.1,0,23.1-0.8,33.5-2.8
			l9.3,24.4h21.1l-11.3-29.5c9.2-3.2,18.2-7.5,27.3-13v42.5h21.1v-57.4c7.8-6.1,15.8-13.2,24.4-21.4c13.7-12.9,31.3-20.7,48.5-25.3
			v82c0,0.3,0,0.6,0,1c0,11.7,9.5,21.1,21.1,21.1s21.1-9.5,21.1-21.1c0-11.7-9.5-21.1-21.1-21.1v-66c23.9-3.4,43-1.8,43.4-1.7
			l0.1-17.5C435.2,56.2,416.9,54.6,393.3,57.7z M198.2,144.8c-1.2,0-2.4,0-3.6,0V62.1l30.8,80.7C217,144.2,208,144.8,198.2,144.8z"
			/>
	</g>
</g>
<g id="Bandlogo-black" class="st0">
	<rect id="White_BG_1_" x="-77.9" y="-368.4" class="st1" width="601.1" height="861.1"/>
	<g id="Logo_15_" class="st2">
		<path class="st3" d="M393.3,57.7V6.1h-21.1v55.5c-20.5,5-42.4,14.2-59.8,30.6c-4.5,4.3-8.9,8.2-13.1,11.9V27.2h19l0,0
			c0,11.7,9.5,21.1,21.1,21.1c11.7,0,21.1-9.5,21.1-21.1s-9.4-21.1-21.1-21.1h-49.2l0,0h-12v114.6c-11.4,8-22.2,13.6-33.5,17.4
			L194.6,6.8l-0.3-0.7h-20.8v0.7V142c-13.4-3.1-25.5-8.9-36.6-17.1V48.3c11.7,0,21.1-9.5,21.1-21.1s-9.4-21.1-21.1-21.1
			c-0.1,0-0.1,0-0.1,0h-21v20.8l0,0v0.6v77.8C95,81.7,77.4,48.3,59.7,7.4V6.1H38.6v177.8h21.1v-136C75.5,80,90.4,103,106.3,120.2
			c3.1,3.4,6.3,6.6,9.6,9.6v54.1H137v-38.2c11.5,6.9,23.6,11.6,36.6,14.2v24h21.1v-21.7c1.2,0,2.4,0,3.6,0c12.1,0,23.1-0.8,33.5-2.8
			l9.3,24.4h21.1l-11.3-29.5c9.2-3.2,18.2-7.5,27.3-13v42.5h21.1v-57.4c7.8-6.1,15.8-13.2,24.4-21.4c13.7-12.9,31.3-20.7,48.5-25.3
			v82c0,0.3,0,0.6,0,1c0,11.7,9.5,21.1,21.1,21.1s21.1-9.5,21.1-21.1c0-11.7-9.5-21.1-21.1-21.1v-66c23.9-3.4,43-1.8,43.4-1.7
			l0.1-17.5C435.2,56.2,416.9,54.6,393.3,57.7z M198.2,144.8c-1.2,0-2.4,0-3.6,0V62.1l30.8,80.7C217,144.2,208,144.8,198.2,144.8z"
			/>
	</g>
</g>
<g id="Bandlogo-white-fb_x5F_bg" class="st0">
	<rect id="Full-black_BG" x="-77.9" y="-368.4" class="st2" width="601.1" height="861.1"/>
	<g id="Logo_2_" class="st2">
		<path class="st4" d="M393.3,57.7V6.1h-21.1v55.5c-20.5,5-42.4,14.2-59.8,30.6c-4.5,4.3-8.9,8.2-13.1,11.9V27.2h19l0,0
			c0,11.7,9.5,21.1,21.1,21.1c11.7,0,21.1-9.5,21.1-21.1s-9.4-21.1-21.1-21.1h-49.2l0,0h-12v114.6c-11.4,8-22.2,13.6-33.5,17.4
			L194.6,6.8l-0.3-0.7h-20.8v0.7V142c-13.4-3.1-25.5-8.9-36.6-17.1V48.3c11.7,0,21.1-9.5,21.1-21.1s-9.4-21.1-21.1-21.1
			c-0.1,0-0.1,0-0.1,0h-21v20.8l0,0v0.6v77.8C95,81.7,77.4,48.3,59.7,7.4V6.1H38.6v177.8h21.1v-136C75.5,80,90.4,103,106.3,120.2
			c3.1,3.4,6.3,6.6,9.6,9.6v54.1H137v-38.2c11.5,6.9,23.6,11.6,36.6,14.2v24h21.1v-21.7c1.2,0,2.4,0,3.6,0c12.1,0,23.1-0.8,33.5-2.8
			l9.3,24.4h21.1l-11.3-29.5c9.2-3.2,18.2-7.5,27.3-13v42.5h21.1v-57.4c7.8-6.1,15.8-13.2,24.4-21.4c13.7-12.9,31.3-20.7,48.5-25.3
			v82c0,0.3,0,0.6,0,1c0,11.7,9.5,21.1,21.1,21.1s21.1-9.5,21.1-21.1c0-11.7-9.5-21.1-21.1-21.1v-66c23.9-3.4,43-1.8,43.4-1.7
			l0.1-17.5C435.2,56.2,416.9,54.6,393.3,57.7z M198.2,144.8c-1.2,0-2.4,0-3.6,0V62.1l30.8,80.7C217,144.2,208,144.8,198.2,144.8z"
			/>
	</g>
</g>
<g id="Bandlogo-white-b_x5F_bg" class="st0">
	<rect id="black_BG_2_" x="-77.9" y="-368.4" class="st5" width="601.1" height="861.1"/>
	<g id="Logo_10_" class="st2">
		<path class="st4" d="M393.3,57.7V6.1h-21.1v55.5c-20.5,5-42.4,14.2-59.8,30.6c-4.5,4.3-8.9,8.2-13.1,11.9V27.2h19l0,0
			c0,11.7,9.5,21.1,21.1,21.1c11.7,0,21.1-9.5,21.1-21.1s-9.4-21.1-21.1-21.1h-49.2l0,0h-12v114.6c-11.4,8-22.2,13.6-33.5,17.4
			L194.6,6.8l-0.3-0.7h-20.8v0.7V142c-13.4-3.1-25.5-8.9-36.6-17.1V48.3c11.7,0,21.1-9.5,21.1-21.1s-9.4-21.1-21.1-21.1
			c-0.1,0-0.1,0-0.1,0h-21v20.8l0,0v0.6v77.8C95,81.7,77.4,48.3,59.7,7.4V6.1H38.6v177.8h21.1v-136C75.5,80,90.4,103,106.3,120.2
			c3.1,3.4,6.3,6.6,9.6,9.6v54.1H137v-38.2c11.5,6.9,23.6,11.6,36.6,14.2v24h21.1v-21.7c1.2,0,2.4,0,3.6,0c12.1,0,23.1-0.8,33.5-2.8
			l9.3,24.4h21.1l-11.3-29.5c9.2-3.2,18.2-7.5,27.3-13v42.5h21.1v-57.4c7.8-6.1,15.8-13.2,24.4-21.4c13.7-12.9,31.3-20.7,48.5-25.3
			v82c0,0.3,0,0.6,0,1c0,11.7,9.5,21.1,21.1,21.1s21.1-9.5,21.1-21.1c0-11.7-9.5-21.1-21.1-21.1v-66c23.9-3.4,43-1.8,43.4-1.7
			l0.1-17.5C435.2,56.2,416.9,54.6,393.3,57.7z M198.2,144.8c-1.2,0-2.4,0-3.6,0V62.1l30.8,80.7C217,144.2,208,144.8,198.2,144.8z"
			/>
	</g>
</g>
<g id="Bandlogo_x5F_no-bg">
	<g id="Logo_7_">
		<path class="st4" d="M393.3,57.7V6.1h-21.1v55.5c-20.5,5-42.4,14.2-59.8,30.6c-4.5,4.3-8.9,8.2-13.1,11.9V27.2h19l0,0
			c0,11.7,9.5,21.1,21.1,21.1c11.7,0,21.1-9.5,21.1-21.1s-9.4-21.1-21.1-21.1h-49.2l0,0h-12v114.6c-11.4,8-22.2,13.6-33.5,17.4
			L194.6,6.8l-0.3-0.7h-20.8v0.7V142c-13.4-3.1-25.5-8.9-36.6-17.1V48.3c11.7,0,21.1-9.5,21.1-21.1s-9.4-21.1-21.1-21.1
			c-0.1,0-0.1,0-0.1,0h-21v20.8l0,0v0.6v77.8C95,81.7,77.4,48.3,59.7,7.4V6.1H38.6v177.8h21.1v-136C75.5,80,90.4,103,106.3,120.2
			c3.1,3.4,6.3,6.6,9.6,9.6v54.1H137v-38.2c11.5,6.9,23.6,11.6,36.6,14.2v24h21.1v-21.7c1.2,0,2.4,0,3.6,0c12.1,0,23.1-0.8,33.5-2.8
			l9.3,24.4h21.1l-11.3-29.5c9.2-3.2,18.2-7.5,27.3-13v42.5h21.1v-57.4c7.8-6.1,15.8-13.2,24.4-21.4c13.7-12.9,31.3-20.7,48.5-25.3
			v82c0,0.3,0,0.6,0,1c0,11.7,9.5,21.1,21.1,21.1s21.1-9.5,21.1-21.1c0-11.7-9.5-21.1-21.1-21.1v-66c23.9-3.4,43-1.8,43.4-1.7
			l0.1-17.5C435.2,56.2,416.9,54.6,393.3,57.7z M198.2,144.8c-1.2,0-2.4,0-3.6,0V62.1l30.8,80.7C217,144.2,208,144.8,198.2,144.8z"
			/>
	</g>
</g>
</svg>
