<?xml version="1.0" encoding="utf-8"?>
<!-- Generator: Adobe Illustrator 24.0.1, SVG Export Plug-In . SVG Version: 6.00 Build 0)  -->
<svg version="1.1" xmlns="http://www.w3.org/2000/svg" xmlns:xlink="http://www.w3.org/1999/xlink" x="0px" y="0px"
	 viewBox="0 0 595.28 841.89" style="enable-background:new 0 0 595.28 841.89;" xml:space="preserve">
<style type="text/css">
	.st0{display:none;}
	.st1{display:inline;fill:#FFFFFF;}
	.st2{display:inline;}
	.st3{fill:#231F20;}
	.st4{fill:#FFFFFF;}
	.st5{display:inline;fill:#231F20;}
</style>
<g id="Bandlogo-fblack" class="st0">
	<rect id="White_BG" x="-2.92" y="-12.63" class="st1" width="601.12" height="861.12"/>
	<g id="Logo" class="st2">
		<path d="M468.27,413.47V361.9h-21.11l0.01,55.49c-20.53,5.01-42.39,14.16-59.8,30.58c-4.53,4.27-8.88,8.23-13.09,11.89v-76.87
			l19.04-0.01v0.02c0,11.66,9.45,21.11,21.11,21.11c11.66,0,21.11-9.45,21.11-21.11s-9.45-21.11-21.11-21.11h-49.24v0h-12.01
			l0.02,114.6c-11.41,7.95-22.21,13.58-33.48,17.39l-50.09-131.27l-0.28-0.72h-20.83v0.73l0.02,135.17
			c-13.44-3.14-25.53-8.93-36.63-17.13v-76.56c11.66,0,21.11-9.45,21.11-21.11s-9.45-21.11-21.11-21.11c-0.05,0-0.09,0-0.14,0
			h-20.97l0,20.8v0.03l0,0.58l0.01,77.75c-20.8-23.6-38.39-56.96-56.14-97.83v-1.34h-21.11l0.02,177.75h21.08V403.72
			c15.81,32.11,30.67,55.08,46.57,72.31c3.13,3.39,6.32,6.58,9.57,9.56l0.01,54.06h21.08v-38.19c11.46,6.89,23.64,11.6,36.63,14.18
			l0,24.01h21.08v-21.7c1.2,0.03,2.4,0.05,3.61,0.05c12.14,0,23.15-0.85,33.53-2.78l9.33,24.43h21.08l-11.25-29.48
			c9.21-3.2,18.16-7.48,27.27-13.05l0.01,42.53h21.08v-57.42c7.75-6.15,15.81-13.23,24.42-21.35
			c13.72-12.94,31.29-20.69,48.47-25.27l0.01,81.97c-0.01,0.32-0.02,0.64-0.02,0.96c0,11.66,9.45,21.11,21.11,21.11
			c11.66,0,21.11-9.45,21.11-21.11c0-11.66-9.45-21.11-21.11-21.11v-66.09c23.93-3.42,43.05-1.75,43.42-1.71l0.06-17.5
			C510.18,411.99,491.89,410.37,468.27,413.47z M273.23,500.55c-1.21,0-2.42-0.02-3.61-0.05v-82.57l30.8,80.68
			C291.99,499.96,283.05,500.55,273.23,500.55z"/>
	</g>
</g>
<g id="Bandlogo-black" class="st0">
	<rect id="White_BG_1_" x="-2.92" y="-12.63" class="st1" width="601.12" height="861.12"/>
	<g id="Logo_15_" class="st2">
		<path class="st3" d="M468.27,413.47V361.9h-21.11l0.01,55.49c-20.53,5.01-42.39,14.16-59.8,30.58
			c-4.53,4.27-8.88,8.23-13.09,11.89v-76.87l19.04-0.01v0.02c0,11.66,9.45,21.11,21.11,21.11c11.66,0,21.11-9.45,21.11-21.11
			s-9.45-21.11-21.11-21.11h-49.24v0h-12.01l0.02,114.6c-11.41,7.95-22.21,13.58-33.48,17.39l-50.09-131.27l-0.28-0.72h-20.83v0.73
			l0.02,135.17c-13.44-3.14-25.53-8.93-36.63-17.13v-76.56c11.66,0,21.11-9.45,21.11-21.11s-9.45-21.11-21.11-21.11
			c-0.05,0-0.09,0-0.14,0h-20.97l0,20.8v0.03l0,0.58l0.01,77.75c-20.8-23.6-38.39-56.96-56.14-97.83v-1.34h-21.11l0.02,177.75h21.08
			V403.72c15.81,32.11,30.67,55.08,46.57,72.31c3.13,3.39,6.32,6.58,9.57,9.56l0.01,54.06h21.08v-38.19
			c11.46,6.89,23.64,11.6,36.63,14.18l0,24.01h21.08v-21.7c1.2,0.03,2.4,0.05,3.61,0.05c12.14,0,23.15-0.85,33.53-2.78l9.33,24.43
			h21.08l-11.25-29.48c9.21-3.2,18.16-7.48,27.27-13.05l0.01,42.53h21.08v-57.42c7.75-6.15,15.81-13.23,24.42-21.35
			c13.72-12.94,31.29-20.69,48.47-25.27l0.01,81.97c-0.01,0.32-0.02,0.64-0.02,0.96c0,11.66,9.45,21.11,21.11,21.11
			c11.66,0,21.11-9.45,21.11-21.11c0-11.66-9.45-21.11-21.11-21.11v-66.09c23.93-3.42,43.05-1.75,43.42-1.71l0.06-17.5
			C510.18,411.99,491.89,410.37,468.27,413.47z M273.23,500.55c-1.21,0-2.42-0.02-3.61-0.05v-82.57l30.8,80.68
			C291.99,499.96,283.05,500.55,273.23,500.55z"/>
	</g>
</g>
<g id="Bandlogo-white-fb_x5F_bg" class="st0">
	<rect id="Full-black_BG" x="-2.92" y="-12.63" class="st2" width="601.12" height="861.12"/>
	<g id="Logo_2_" class="st2">
		<path class="st4" d="M468.27,413.47V361.9h-21.11l0.01,55.49c-20.53,5.01-42.39,14.16-59.8,30.58
			c-4.53,4.27-8.88,8.23-13.09,11.89v-76.87l19.04-0.01v0.02c0,11.66,9.45,21.11,21.11,21.11c11.66,0,21.11-9.45,21.11-21.11
			s-9.45-21.11-21.11-21.11h-49.24v0h-12.01l0.02,114.6c-11.41,7.95-22.21,13.58-33.48,17.39l-50.09-131.27l-0.28-0.72h-20.83v0.73
			l0.02,135.17c-13.44-3.14-25.53-8.93-36.63-17.13v-76.56c11.66,0,21.11-9.45,21.11-21.11s-9.45-21.11-21.11-21.11
			c-0.05,0-0.09,0-0.14,0h-20.97l0,20.8v0.03l0,0.58l0.01,77.75c-20.8-23.6-38.39-56.96-56.14-97.83v-1.34h-21.11l0.02,177.75h21.08
			V403.72c15.81,32.11,30.67,55.08,46.57,72.31c3.13,3.39,6.32,6.58,9.57,9.56l0.01,54.06h21.08v-38.19
			c11.46,6.89,23.64,11.6,36.63,14.18l0,24.01h21.08v-21.7c1.2,0.03,2.4,0.05,3.61,0.05c12.14,0,23.15-0.85,33.53-2.78l9.33,24.43
			h21.08l-11.25-29.48c9.21-3.2,18.16-7.48,27.27-13.05l0.01,42.53h21.08v-57.42c7.75-6.15,15.81-13.23,24.42-21.35
			c13.72-12.94,31.29-20.69,48.47-25.27l0.01,81.97c-0.01,0.32-0.02,0.64-0.02,0.96c0,11.66,9.45,21.11,21.11,21.11
			c11.66,0,21.11-9.45,21.11-21.11c0-11.66-9.45-21.11-21.11-21.11v-66.09c23.93-3.42,43.05-1.75,43.42-1.71l0.06-17.5
			C510.18,411.99,491.89,410.37,468.27,413.47z M273.23,500.55c-1.21,0-2.42-0.02-3.61-0.05v-82.57l30.8,80.68
			C291.99,499.96,283.05,500.55,273.23,500.55z"/>
	</g>
</g>
<g id="Bandlogo-white-b_x5F_bg" class="st0">
	<rect id="black_BG_2_" x="-2.92" y="-12.63" class="st5" width="601.12" height="861.12"/>
	<g id="Logo_10_" class="st2">
		<path class="st4" d="M468.27,413.47V361.9h-21.11l0.01,55.49c-20.53,5.01-42.39,14.16-59.8,30.58
			c-4.53,4.27-8.88,8.23-13.09,11.89v-76.87l19.04-0.01v0.02c0,11.66,9.45,21.11,21.11,21.11c11.66,0,21.11-9.45,21.11-21.11
			s-9.45-21.11-21.11-21.11h-49.24v0h-12.01l0.02,114.6c-11.41,7.95-22.21,13.58-33.48,17.39l-50.09-131.27l-0.28-0.72h-20.83v0.73
			l0.02,135.17c-13.44-3.14-25.53-8.93-36.63-17.13v-76.56c11.66,0,21.11-9.45,21.11-21.11s-9.45-21.11-21.11-21.11
			c-0.05,0-0.09,0-0.14,0h-20.97l0,20.8v0.03l0,0.58l0.01,77.75c-20.8-23.6-38.39-56.96-56.14-97.83v-1.34h-21.11l0.02,177.75h21.08
			V403.72c15.81,32.11,30.67,55.08,46.57,72.31c3.13,3.39,6.32,6.58,9.57,9.56l0.01,54.06h21.08v-38.19
			c11.46,6.89,23.64,11.6,36.63,14.18l0,24.01h21.08v-21.7c1.2,0.03,2.4,0.05,3.61,0.05c12.14,0,23.15-0.85,33.53-2.78l9.33,24.43
			h21.08l-11.25-29.48c9.21-3.2,18.16-7.48,27.27-13.05l0.01,42.53h21.08v-57.42c7.75-6.15,15.81-13.23,24.42-21.35
			c13.72-12.94,31.29-20.69,48.47-25.27l0.01,81.97c-0.01,0.32-0.02,0.64-0.02,0.96c0,11.66,9.45,21.11,21.11,21.11
			c11.66,0,21.11-9.45,21.11-21.11c0-11.66-9.45-21.11-21.11-21.11v-66.09c23.93-3.42,43.05-1.75,43.42-1.71l0.06-17.5
			C510.18,411.99,491.89,410.37,468.27,413.47z M273.23,500.55c-1.21,0-2.42-0.02-3.61-0.05v-82.57l30.8,80.68
			C291.99,499.96,283.05,500.55,273.23,500.55z"/>
	</g>
</g>
<g id="Bandlogo_x5F_no-bg">
	<g id="Logo_7_">
		<path d="M468.27,413.47V361.9h-21.11l0.01,55.49c-20.53,5.01-42.39,14.16-59.8,30.58c-4.53,4.27-8.88,8.23-13.09,11.89v-76.87
			l19.04-0.01v0.02c0,11.66,9.45,21.11,21.11,21.11c11.66,0,21.11-9.45,21.11-21.11s-9.45-21.11-21.11-21.11h-49.24v0h-12.01
			l0.02,114.6c-11.41,7.95-22.21,13.58-33.48,17.39l-50.09-131.27l-0.28-0.72h-20.83v0.73l0.02,135.17
			c-13.44-3.14-25.53-8.93-36.63-17.13v-76.56c11.66,0,21.11-9.45,21.11-21.11s-9.45-21.11-21.11-21.11c-0.05,0-0.09,0-0.14,0
			h-20.97l0,20.8v0.03l0,0.58l0.01,77.75c-20.8-23.6-38.39-56.96-56.14-97.83v-1.34h-21.11l0.02,177.75h21.08V403.72
			c15.81,32.11,30.67,55.08,46.57,72.31c3.13,3.39,6.32,6.58,9.57,9.56l0.01,54.06h21.08v-38.19c11.46,6.89,23.64,11.6,36.63,14.18
			l0,24.01h21.08v-21.7c1.2,0.03,2.4,0.05,3.61,0.05c12.14,0,23.15-0.85,33.53-2.78l9.33,24.43h21.08l-11.25-29.48
			c9.21-3.2,18.16-7.48,27.27-13.05l0.01,42.53h21.08v-57.42c7.75-6.15,15.81-13.23,24.42-21.35
			c13.72-12.94,31.29-20.69,48.47-25.27l0.01,81.97c-0.01,0.32-0.02,0.64-0.02,0.96c0,11.66,9.45,21.11,21.11,21.11
			c11.66,0,21.11-9.45,21.11-21.11c0-11.66-9.45-21.11-21.11-21.11v-66.09c23.93-3.42,43.05-1.75,43.42-1.71l0.06-17.5
			C510.18,411.99,491.89,410.37,468.27,413.47z M273.23,500.55c-1.21,0-2.42-0.02-3.61-0.05v-82.57l30.8,80.68
			C291.99,499.96,283.05,500.55,273.23,500.55z"/>
	</g>
	<g>
	</g>
	<g>
	</g>
	<g>
	</g>
	<g>
	</g>
	<g>
	</g>
	<g>
	</g>
</g>
</svg>
